<svg id="Layer_1" data-name="Layer 1" xmlns="http://www.w3.org/2000/svg" viewBox="0 0 54.59 50.49"><defs><style>.cls-1{fill:#b8c833;}</style></defs><title>Fondos</title><g id="_Grupo_" data-name="&lt;Grupo&gt;"><path class="cls-1" d="M472.28,833.53a1,1,0,0,1-1-1V791.21a1,1,0,0,1,2,0v41.32A1,1,0,0,1,472.28,833.53Z" transform="translate(-464.68 -790.21)"/><path class="cls-1" d="M518.26,833.53h-46a1,1,0,1,1,0-2h46A1,1,0,0,1,518.26,833.53Z" transform="translate(-464.68 -790.21)"/><path class="cls-1" d="M472.28,799.15h-6.6a1,1,0,0,1,0-2h6.6A1,1,0,1,1,472.28,799.15Z" transform="translate(-464.68 -790.21)"/><path class="cls-1" d="M472.28,813h-6.6a1,1,0,0,1,0-2h6.6A1,1,0,1,1,472.28,813Z" transform="translate(-464.68 -790.21)"/><path class="cls-1" d="M472.28,826.85h-6.6a1,1,0,0,1,0-2h6.6A1,1,0,1,1,472.28,826.85Z" transform="translate(-464.68 -790.21)"/><path class="cls-1" d="M478.54,840.69a1,1,0,0,1-1-1v-7.16a1,1,0,0,1,2,0v7.16A1,1,0,0,1,478.54,840.69Z" transform="translate(-464.68 -790.21)"/><path class="cls-1" d="M489.93,840.68a1,1,0,0,1-1-1v-7.15a1,1,0,0,1,2,0v7.15A1,1,0,0,1,489.93,840.68Z" transform="translate(-464.68 -790.21)"/><path class="cls-1" d="M499.92,840.68a1,1,0,0,1-1-1v-7.15a1,1,0,0,1,2,0v7.15A1,1,0,0,1,499.92,840.68Z" transform="translate(-464.68 -790.21)"/><path class="cls-1" d="M510.58,840.68a1,1,0,0,1-1-1v-7.09a1,1,0,0,1,2,0v7.09A1,1,0,0,1,510.58,840.68Z" transform="translate(-464.68 -790.21)"/><path class="cls-1" d="M479.08,825.83a1,1,0,0,1-.86-1.51l8.42-14.23a1,1,0,0,1,.84-0.49,1,1,0,0,1,.86.46l5.11,7.9,6.7-7.24a1,1,0,0,1,.73-0.32h0a1,1,0,0,1,.73.32l4.79,5.12,6.46-18a1,1,0,0,1,1.88.68l-7,19.56a1,1,0,0,1-1.67.35l-5.18-5.54L494,820.26a1,1,0,0,1-.82.32,1,1,0,0,1-.75-0.45l-4.93-7.62-7.59,12.84A1,1,0,0,1,479.08,825.83Z" transform="translate(-464.68 -790.21)"/></g></svg>