<?xml version="1.0" encoding="utf-8"?>
<!-- Generator: Adobe Illustrator 19.0.0, SVG Export Plug-In . SVG Version: 6.00 Build 0)  -->
<svg version="1.1" id="Layer_1" xmlns="http://www.w3.org/2000/svg" xmlns:xlink="http://www.w3.org/1999/xlink" x="0px" y="0px"
	 viewBox="0 0 45.3 48.8" style="enable-background:new 0 0 45.3 48.8;" xml:space="preserve">
<style type="text/css">
	.st0{fill:#B8C835;}
</style>
<g id="XMLID_464_">
	<g id="XMLID_512_">
		<g id="XMLID_722_">
			<path id="XMLID_6_" class="st0" d="M40.5,45H18.1c-1,0-1.9-0.3-2.7-0.9c-0.5-0.3-0.6-0.9-0.2-1.4c0.3-0.5,0.9-0.6,1.4-0.2
				c0.5,0.3,1,0.5,1.6,0.5h22.5c1.5,0,2.8-1.2,2.8-2.8V4.8c0-1.5-1.2-2.8-2.8-2.8H18.1c-1.5,0-2.8,1.2-2.8,2.8v8.5c0,0.6-0.4,1-1,1
				s-1-0.4-1-1V4.8c0-2.6,2.1-4.8,4.8-4.8h22.5c2.6,0,4.8,2.1,4.8,4.8v35.4C45.3,42.8,43.2,45,40.5,45z"/>
		</g>
		<g id="XMLID_529_">
			<path id="XMLID_5_" class="st0" d="M37,45c-0.6,0-1-0.4-1-1V1c0-0.6,0.4-1,1-1s1,0.4,1,1v43C38,44.5,37.6,45,37,45z"/>
		</g>
	</g>
	<g id="XMLID_491_">
		<path id="XMLID_2_" class="st0" d="M14,48.8H1c-0.3,0-0.6-0.1-0.8-0.3C0.1,48.3,0,48,0,47.7l3.6-23.1c0-0.2,0.1-0.4,0.2-0.5
			l9.8-11.5c0.3-0.3,0.7-0.4,1.1-0.3c0.4,0.1,0.7,0.5,0.7,0.9v15l4.3-4.3c2.3-2.3,6.1-2.3,8.5,0l0,0l0,0c2.3,2.3,2.3,6.1,0,8.5
			l-12,11.9L15,48.1C14.9,48.6,14.5,48.8,14,48.8z M2.2,46.8h11.1l1-3.3c0-0.2,0.1-0.3,0.3-0.4L26.7,31c0.8-0.8,1.2-1.8,1.2-2.8
			c0-1.1-0.4-2.1-1.2-2.8l0,0c-1.6-1.6-4.1-1.6-5.7,0l-6,6c-0.3,0.3-0.7,0.4-1.1,0.2c-0.4-0.2-0.6-0.5-0.6-0.9V16l-7.8,9.2L2.2,46.8
			z"/>
	</g>
</g>
<g id="XMLID_19_">
</g>
<g id="XMLID_20_">
</g>
<g id="XMLID_21_">
</g>
<g id="XMLID_22_">
</g>
<g id="XMLID_23_">
</g>
<g id="XMLID_24_">
</g>
</svg>
